<svg width="116" height="116" viewBox="0 0 116 116" fill="none" xmlns="http://www.w3.org/2000/svg">
<path d="M59.9488 90.095C62.1073 90.095 64.1774 90.9524 65.7037 92.4787C67.23 94.005 68.0875 96.0752 68.0875 98.2337V108H51.8101V98.2337C51.8101 96.0752 52.6675 94.005 54.1938 92.4787C55.7201 90.9524 57.7902 90.095 59.9488 90.095Z" fill="url(#paint0_linear_348_4442)"/>
<path d="M59.9493 90.0949C61.7473 90.0949 63.2048 88.6374 63.2048 86.8395C63.2048 85.0415 61.7473 83.584 59.9493 83.584C58.1514 83.584 56.6938 85.0415 56.6938 86.8395C56.6938 88.6374 58.1514 90.0949 59.9493 90.0949Z" fill="url(#paint1_linear_348_4442)"/>
<path d="M96.6937 42.7292C94.9689 41.0079 92.6317 40.0412 90.1949 40.0412C87.7582 40.0412 85.421 41.0079 83.6962 42.7292L80.6588 45.7682L73.7604 38.8699L77.2503 35.3816C78.9686 33.5472 79.8905 31.1069 79.8142 28.5946C79.738 26.0822 78.6698 23.7024 76.8434 21.9755C75.1168 20.1492 72.7372 19.0811 70.2252 19.0048C67.7131 18.9286 65.2731 19.8504 63.4389 21.5686L59.9491 25.0585L56.4592 21.5686C54.6257 19.8497 52.1858 18.9274 49.6737 19.0036C47.1617 19.0799 44.7822 20.1486 43.0564 21.9755C41.2568 23.7498 40.193 26.1378 40.0776 28.6623C40.0132 29.8998 40.2088 31.1371 40.6518 32.2944C41.0947 33.4517 41.7752 34.5034 42.6494 35.3816L46.1377 38.8699L39.6023 45.4052L36.9263 42.7292C35.6411 41.4454 34.0041 40.5714 32.2223 40.2177C30.4405 39.864 28.5938 40.0464 26.9156 40.7421C25.2375 41.4377 23.8032 42.6152 22.7942 44.1258C21.7851 45.6364 21.2466 47.4122 21.2466 49.2288C21.2466 51.0454 21.7851 52.8212 22.7942 54.3318C23.8032 55.8424 25.2375 57.0199 26.9156 57.7155C28.5938 58.4111 30.4405 58.5936 32.2223 58.2399C34.0041 57.8862 35.6411 57.0122 36.9263 55.7284L39.6023 53.0524L46.1361 59.5861L42.6494 63.0727C41.7754 63.9507 41.0949 65.0021 40.652 66.1591C40.209 67.3162 40.0134 68.5532 40.0776 69.7904C40.2107 72.3104 41.2716 74.692 43.0558 76.4766C44.8401 78.2611 47.2215 79.3224 49.7415 79.4559C49.8766 79.4559 50.0085 79.4641 50.1403 79.4641C51.3121 79.475 52.4743 79.2525 53.5592 78.8095C54.6441 78.3666 55.6299 77.712 56.4592 76.8841L59.9491 73.3959L63.4389 76.8841C64.2682 77.712 65.2541 78.3666 66.3389 78.8095C67.4238 79.2525 68.5861 79.475 69.7578 79.4641C69.8897 79.4641 70.0215 79.4641 70.1566 79.4559C72.681 79.3398 75.0687 78.2761 76.8434 76.4772C78.6701 74.7509 79.7385 72.3712 79.8147 69.859C79.891 67.3468 78.9689 64.9067 77.2503 63.0727L73.7621 59.5861L80.6588 52.6894L83.6962 55.7284C85.4269 57.4182 87.754 58.3578 90.1729 58.3432C92.5917 58.3287 94.9074 57.3613 96.6177 55.6508C98.328 53.9402 99.2951 51.6245 99.3094 49.2056C99.3236 46.7867 98.3838 44.4598 96.6937 42.7292ZM66.8914 25.021C67.81 24.2192 69.0079 23.8122 70.2248 23.8884C71.4418 23.9646 72.5795 24.5178 73.3909 25.428C74.3007 26.2396 74.8537 27.3773 74.9299 28.5941C75.006 29.811 74.5993 31.0087 73.7979 31.9275L70.308 35.4174L63.4015 28.5109L66.8914 25.021ZM59.9491 31.9634L66.8556 38.8699L59.9491 45.7747L53.0426 38.8699L59.9491 31.9634ZM46.1019 31.9292C45.2996 31.0105 44.8922 29.8122 44.9684 28.5949C45.0446 27.3775 45.5982 26.2395 46.5088 25.428C47.32 24.5179 48.4574 23.9647 49.6741 23.8885C50.8908 23.8124 52.0884 24.2193 53.0068 25.021L56.4966 28.5109L49.5901 35.4174L46.1019 31.9292ZM33.4739 52.2759C32.8713 52.8778 32.1039 53.2876 31.2686 53.4534C30.4332 53.6192 29.5674 53.5336 28.7807 53.2075C27.994 52.8814 27.3216 52.3293 26.8485 51.6212C26.3755 50.913 26.123 50.0804 26.123 49.2288C26.123 48.3771 26.3755 47.5446 26.8485 46.8364C27.3216 46.1282 27.994 45.5762 28.7807 45.2501C29.5674 44.924 30.4332 44.8384 31.2686 45.0042C32.1039 45.17 32.8713 45.5798 33.4739 46.1817L36.521 49.2288L33.4739 52.2759ZM42.6836 49.2288L49.5901 42.3223L56.4966 49.2288L49.5885 56.1353L42.6836 49.2288ZM59.9491 66.4942L53.0409 59.5861L59.9491 52.6796L66.8572 59.5861L59.9491 66.4942ZM53.0068 73.4317C52.6052 73.8271 52.1245 74.1331 51.5962 74.3295C51.068 74.5259 50.5041 74.6082 49.9417 74.5711C48.6476 74.4891 47.4276 73.9383 46.5103 73.0218C45.5929 72.1053 45.0409 70.8859 44.9576 69.5918C44.9229 69.0294 45.0063 68.466 45.2026 67.9378C45.3988 67.4097 45.7035 66.9284 46.097 66.5252L49.5836 63.0385L56.4901 69.945L53.0068 73.4317ZM73.7979 66.5252C74.5993 67.444 75.006 68.6417 74.9299 69.8586C74.8537 71.0754 74.3007 72.2131 73.3909 73.0247C72.482 73.9564 71.2548 74.5105 69.9548 74.576C69.3928 74.6114 68.8297 74.5283 68.3019 74.332C67.7742 74.1357 67.2936 73.8306 66.8914 73.4366L63.4031 69.9499L70.3096 63.0434L73.7979 66.5252ZM70.3096 56.1337L63.4015 49.2288L70.308 42.3239L77.2129 49.2288L70.3096 56.1337ZM93.2412 52.2759C92.4324 53.0821 91.3369 53.5349 90.1949 53.5349C89.0529 53.5349 87.9574 53.0821 87.1486 52.2759L84.1031 49.2288L87.1486 46.1817C87.5488 45.7816 88.0238 45.4643 88.5466 45.2478C89.0694 45.0314 89.6297 44.92 90.1955 44.9201C90.7613 44.9202 91.3216 45.0317 91.8443 45.2483C92.3671 45.4649 92.842 45.7823 93.242 46.1825C93.6421 46.5826 93.9594 47.0577 94.1759 47.5805C94.3923 48.1032 94.5037 48.6635 94.5036 49.2294C94.5036 49.7952 94.392 50.3555 94.1754 50.8782C93.9588 51.4009 93.6414 51.8759 93.2412 52.2759Z" fill="url(#paint2_linear_348_4442)"/>
<path d="M55.3457 12.6038L59.9496 7.99982L64.5536 12.6038L59.9496 17.2077L55.3457 12.6038Z" fill="url(#paint3_linear_348_4442)"/>
<path d="M97.7757 85.2848C98.7367 85.2848 99.5158 84.5057 99.5158 83.5447C99.5158 82.5837 98.7367 81.8047 97.7757 81.8047C96.8147 81.8047 96.0356 82.5837 96.0356 83.5447C96.0356 84.5057 96.8147 85.2848 97.7757 85.2848Z" fill="url(#paint4_linear_348_4442)"/>
<path d="M76.6151 90.1679C77.5761 90.1679 78.3551 89.3888 78.3551 88.4278C78.3551 87.4668 77.5761 86.6877 76.6151 86.6877C75.654 86.6877 74.875 87.4668 74.875 88.4278C74.875 89.3888 75.654 90.1679 76.6151 90.1679Z" fill="url(#paint5_linear_348_4442)"/>
<defs>
<linearGradient id="paint0_linear_348_4442" x1="59.9488" y1="90.095" x2="59.9488" y2="108" gradientUnits="userSpaceOnUse">
<stop stop-color="#11666D"/>
<stop offset="1" stop-color="#338D94"/>
</linearGradient>
<linearGradient id="paint1_linear_348_4442" x1="59.9493" y1="83.584" x2="59.9493" y2="90.0949" gradientUnits="userSpaceOnUse">
<stop stop-color="#11666D"/>
<stop offset="1" stop-color="#338D94"/>
</linearGradient>
<linearGradient id="paint2_linear_348_4442" x1="60.278" y1="18.9993" x2="60.278" y2="79.4645" gradientUnits="userSpaceOnUse">
<stop stop-color="#11666D"/>
<stop offset="1" stop-color="#338D94"/>
</linearGradient>
<linearGradient id="paint3_linear_348_4442" x1="57.6477" y1="10.3018" x2="62.2516" y2="14.9057" gradientUnits="userSpaceOnUse">
<stop stop-color="#11666D"/>
<stop offset="1" stop-color="#338D94"/>
</linearGradient>
<linearGradient id="paint4_linear_348_4442" x1="97.7757" y1="81.8047" x2="97.7757" y2="85.2848" gradientUnits="userSpaceOnUse">
<stop stop-color="#11666D"/>
<stop offset="1" stop-color="#338D94"/>
</linearGradient>
<linearGradient id="paint5_linear_348_4442" x1="76.6151" y1="86.6877" x2="76.6151" y2="90.1679" gradientUnits="userSpaceOnUse">
<stop stop-color="#11666D"/>
<stop offset="1" stop-color="#338D94"/>
</linearGradient>
</defs>
</svg>
