<svg width="78" height="89" viewBox="0 0 78 89" fill="none" xmlns="http://www.w3.org/2000/svg">
<path d="M33.288 0C27.1852 0 22.192 4.9932 22.192 11.096H11.096C4.9932 11.096 0 16.0892 0 22.192H77.6721C77.6721 16.0892 72.6789 11.096 66.576 11.096H55.48C55.48 4.9932 50.4868 0 44.384 0H33.288ZM11.096 33.288V86.6598C11.096 87.8804 11.9837 88.7681 13.2043 88.7681H64.5788C65.7993 88.7681 66.687 87.8804 66.687 86.6598V33.288H55.591V72.124C55.591 75.2309 53.1499 77.6721 50.043 77.6721C46.9361 77.6721 44.495 75.2309 44.495 72.124V33.288H33.399V72.124C33.399 75.2309 30.9579 77.6721 27.851 77.6721C24.7441 77.6721 22.303 75.2309 22.303 72.124V33.288H11.207H11.096Z" fill="black"/>
</svg>
