<svg width="18" height="14" viewBox="0 0 18 14" fill="none" xmlns="http://www.w3.org/2000/svg">
<path d="M2.7 6.09995C3.69281 6.09995 4.5 5.29276 4.5 4.29995C4.5 3.30714 3.69281 2.49995 2.7 2.49995C1.70719 2.49995 0.9 3.30714 0.9 4.29995C0.9 5.29276 1.70719 6.09995 2.7 6.09995ZM15.3 6.09995C16.2928 6.09995 17.1 5.29276 17.1 4.29995C17.1 3.30714 16.2928 2.49995 15.3 2.49995C14.3072 2.49995 13.5 3.30714 13.5 4.29995C13.5 5.29276 14.3072 6.09995 15.3 6.09995ZM16.2 6.99995H14.4C13.905 6.99995 13.4578 7.19964 13.1316 7.52308C14.265 8.14464 15.0694 9.26683 15.2437 10.6H17.1C17.5978 10.6 18 10.1978 18 9.69995V8.79995C18 7.80714 17.1928 6.99995 16.2 6.99995ZM9 6.99995C10.7409 6.99995 12.15 5.59089 12.15 3.84995C12.15 2.10901 10.7409 0.699951 9 0.699951C7.25906 0.699951 5.85 2.10901 5.85 3.84995C5.85 5.59089 7.25906 6.99995 9 6.99995ZM11.16 7.89995H10.9266C10.3416 8.1812 9.69187 8.34995 9 8.34995C8.30812 8.34995 7.66125 8.1812 7.07344 7.89995H6.84C5.05125 7.89995 3.6 9.3512 3.6 11.14V11.95C3.6 12.6953 4.20469 13.3 4.95 13.3H13.05C13.7953 13.3 14.4 12.6953 14.4 11.95V11.14C14.4 9.3512 12.9487 7.89995 11.16 7.89995ZM4.86844 7.52308C4.54219 7.19964 4.095 6.99995 3.6 6.99995H1.8C0.807188 6.99995 0 7.80714 0 8.79995V9.69995C0 10.1978 0.402187 10.6 0.9 10.6H2.75344C2.93062 9.26683 3.735 8.14464 4.86844 7.52308Z" fill="#808191"/>
</svg>
