<svg width="79" height="78" viewBox="0 0 79 78" fill="none" xmlns="http://www.w3.org/2000/svg">
<path d="M49.4877 77.8095H28.0629C8.67342 77.8095 0.38916 69.5253 0.38916 50.1358V28.711C0.38916 9.32161 8.67342 1.03735 28.0629 1.03735H35.2045C36.6685 1.03735 37.8826 2.25143 37.8826 3.71545C37.8826 5.17948 36.6685 6.39355 35.2045 6.39355H28.0629C11.6015 6.39355 5.74536 12.2497 5.74536 28.711V50.1358C5.74536 66.5972 11.6015 72.4533 28.0629 72.4533H49.4877C65.949 72.4533 71.8051 66.5972 71.8051 50.1358V42.9942C71.8051 41.5302 73.0192 40.3161 74.4832 40.3161C75.9473 40.3161 77.1613 41.5302 77.1613 42.9942V50.1358C77.1613 69.5253 68.8771 77.8095 49.4877 77.8095Z" fill="#292D32"/>
<path d="M26.275 59.7417C24.0968 59.7417 22.0971 58.9561 20.6331 57.5278C18.8834 55.7781 18.1335 53.2428 18.5263 50.5647L20.0618 39.8166C20.3474 37.7456 21.7043 35.0675 23.1684 33.6034L51.3061 5.46541C58.412 -1.64049 65.625 -1.64049 72.7309 5.46541C76.6231 9.35758 78.3727 13.3212 78.0157 17.2848C77.6943 20.4985 75.9803 23.6408 72.7309 26.8545L44.593 54.9925C43.129 56.4566 40.4509 57.8135 38.3798 58.0991L27.6319 59.6346C27.1677 59.7417 26.7034 59.7417 26.275 59.7417ZM55.0911 9.25045L26.9534 37.3885C26.275 38.0669 25.4894 39.6381 25.3465 40.5665L23.8111 51.3146C23.6683 52.3501 23.8825 53.2071 24.4181 53.7428C24.9538 54.2784 25.8108 54.4926 26.8463 54.3498L37.5942 52.8143C38.5226 52.6715 40.1295 51.8859 40.7722 51.2075L68.9101 23.0694C71.2311 20.7484 72.4452 18.6774 72.6238 16.7491C72.838 14.4281 71.6239 11.9643 68.9101 9.21475C63.1968 3.50147 59.269 5.10833 55.0911 9.25045Z" fill="#292D32"/>
<path d="M66.8044 31.6742C66.5544 31.6742 66.3045 31.6385 66.0902 31.5671C56.699 28.9247 49.236 21.4617 46.5937 12.0705C46.2009 10.6422 47.0222 9.17816 48.4505 8.74966C49.8788 8.35687 51.3428 9.17816 51.7356 10.6065C53.8781 18.2123 59.9127 24.2469 67.5185 26.3894C68.9469 26.7822 69.7681 28.2819 69.3754 29.7103C69.054 30.9243 67.9827 31.6742 66.8044 31.6742Z" fill="#292D32"/>
</svg>
