<svg width="116" height="116" viewBox="0 0 116 116" fill="none" xmlns="http://www.w3.org/2000/svg">
<path d="M30.2222 30.2222C33.5556 30.2222 35.7778 28 35.7778 24.6667V13.5556C35.7778 10.7778 33.5556 8 30.2222 8C26.8889 8 24.6667 10.7778 24.6667 13.5556V24.6667C24.6667 28 26.8889 30.2222 30.2222 30.2222ZM85.7778 30.2222C89.1111 30.2222 91.3333 28 91.3333 24.6667V13.5556C91.3333 10.7778 89.1111 8 85.7778 8C82.4444 8 80.2222 10.7778 80.2222 13.5556V24.6667C80.2222 28 82.4444 30.2222 85.7778 30.2222ZM35.7778 80.2222H24.6667V91.3333H35.7778V80.2222ZM96.8889 19.1111V24.6667C96.8889 30.7778 91.8889 35.7778 85.7778 35.7778C79.6667 35.7778 74.6667 30.7778 74.6667 24.6667V19.1111H41.3333V24.6667C41.3333 30.7778 36.3333 35.7778 30.2222 35.7778C24.1111 35.7778 19.1111 30.7778 19.1111 24.6667V19.1111H13.5556C10.7778 19.1111 8 21.8889 8 24.6667V102.444C8 105.222 10.7778 108 13.5556 108H102.444C105.222 108 108 105.222 108 102.444V24.6667C108 21.8889 105.222 19.1111 102.444 19.1111H96.8889ZM41.3333 96.8889H19.1111V74.6667H41.3333V96.8889ZM41.3333 69.1111H19.1111V46.8889H41.3333V69.1111ZM69.1111 96.8889H46.8889V74.6667H69.1111V96.8889ZM69.1111 69.1111H46.8889V46.8889H69.1111V69.1111ZM96.8889 96.8889H74.6667V74.6667H96.8889V96.8889ZM96.8889 69.1111H74.6667V46.8889H96.8889V69.1111ZM63.5556 80.2222H52.4444V91.3333H63.5556V80.2222ZM91.3333 52.4444H80.2222V63.5556H91.3333V52.4444Z" fill="url(#paint0_linear_348_4472)"/>
<defs>
<linearGradient id="paint0_linear_348_4472" x1="58" y1="8" x2="58" y2="108" gradientUnits="userSpaceOnUse">
<stop stop-color="#0D6269"/>
<stop offset="1" stop-color="#338E95"/>
</linearGradient>
</defs>
</svg>
