<svg width="20" height="16" viewBox="0 0 20 16" fill="none" xmlns="http://www.w3.org/2000/svg">
<path d="M1.34717 14.7058V13.8975C1.34717 10.7728 3.88024 8.23975 7.00494 8.23975C10.1296 8.23975 12.6627 10.7728 12.6627 13.8975V14.7058" stroke="white" stroke-width="1.21238" stroke-linecap="round"/>
<path d="M11.0464 9.85645C11.0464 7.62454 12.8557 5.81519 15.0877 5.81519C17.3196 5.81519 19.1289 7.62454 19.1289 9.85645V10.2606" stroke="white" stroke-width="1.21238" stroke-linecap="round"/>
<path d="M7.00499 8.23995C8.7905 8.23995 10.238 6.79245 10.238 5.00694C10.238 3.22139 8.7905 1.77393 7.00499 1.77393C5.21944 1.77393 3.77197 3.22139 3.77197 5.00694C3.77197 6.79245 5.21944 8.23995 7.00499 8.23995Z" stroke="white" stroke-width="1.21238" stroke-linecap="round" stroke-linejoin="round"/>
<path d="M15.0874 5.8151C16.4266 5.8151 17.5121 4.72949 17.5121 3.39034C17.5121 2.05118 16.4266 0.965576 15.0874 0.965576C13.7482 0.965576 12.6626 2.05118 12.6626 3.39034C12.6626 4.72949 13.7482 5.8151 15.0874 5.8151Z" stroke="white" stroke-width="1.21238" stroke-linecap="round" stroke-linejoin="round"/>
</svg>
