<svg width="116" height="116" viewBox="0 0 116 116" fill="none" xmlns="http://www.w3.org/2000/svg">
<path fill-rule="evenodd" clip-rule="evenodd" d="M73.7889 19.0669C73.7889 18.2837 74.6852 17.7679 75.4615 18.105L84.315 21.9473L75.4615 25.7899C74.6852 26.1264 73.7889 25.6112 73.7889 24.8275V19.0669ZM84.315 21.9473L93.1688 18.105C93.9449 17.7679 94.8412 18.2837 94.8412 19.0669V24.8275C94.8412 25.6112 93.9449 26.1264 93.1688 25.7899L84.315 21.9473ZM84.3156 31.8156C80.6822 31.8156 77.7367 34.761 77.7367 38.3944C77.7367 42.0278 80.6822 44.9732 84.3156 44.9732C87.9489 44.9732 90.8944 42.0278 90.8944 38.3944C90.8944 34.761 87.9489 31.8156 84.3156 31.8156ZM72.4737 38.3944C72.4737 31.8542 77.7754 26.5525 84.3156 26.5525C90.8557 26.5525 96.1575 31.8542 96.1575 38.3944C96.1575 42.9772 93.5544 46.9519 89.746 48.9205H90.8944C93.0941 48.9205 95.148 50.02 96.3683 51.8502L106.894 67.6394C108.91 70.6625 108.093 74.7469 105.07 76.7624C103.521 77.7948 101.694 78.084 100.01 77.7145L102.458 82.6115L104.363 86.4199H100.105H97.4732V92.3409C97.4732 95.9742 94.5278 98.9197 90.8944 98.9197C87.261 98.9197 84.3156 95.9742 84.3156 92.3409C84.3156 95.9742 81.3701 98.9197 77.7367 98.9197C74.1034 98.9197 71.1579 95.9742 71.1579 92.3409V86.4199H68.5264H64.2683L66.1724 82.6115L68.6211 77.7145C66.9364 78.084 65.1096 77.7948 63.5612 76.7624C60.5381 74.7469 59.7212 70.6625 61.7365 67.6394L72.2626 51.8502C73.4829 50.02 75.537 48.9205 77.7367 48.9205H78.8851C75.0768 46.9519 72.4737 42.9772 72.4737 38.3944ZM72.7842 81.1568H73.7894H76.421V83.7884V92.3409C76.421 93.0674 77.0099 93.6566 77.7367 93.6566C78.4633 93.6566 79.0525 93.0674 79.0525 92.3409V83.7884V81.1568H81.684H86.9471H89.5786V83.7884V92.3409C89.5786 93.0674 90.1676 93.6566 90.8944 93.6566C91.621 93.6566 92.2102 93.0674 92.2102 92.3409V83.7884V81.1568H94.8417H95.8467L92.4878 74.4391L92.2102 73.8835V73.2622V68.5365V59.8451L97.0311 67.0768L100.326 72.0183C100.729 72.623 101.546 72.7865 102.15 72.3833C102.755 71.9801 102.918 71.1633 102.515 70.5586L91.9891 54.7694C91.7452 54.4036 91.3344 54.1836 90.8944 54.1836H77.7367C77.2967 54.1836 76.8859 54.4036 76.6417 54.7694L66.1156 70.5586C65.7127 71.1633 65.8761 71.9801 66.4806 72.3833C67.0853 72.7865 67.9022 72.623 68.3053 72.0183L71.5997 67.0768L76.421 59.8451V68.5365V73.2622V73.8835L76.1431 74.4391L72.7842 81.1568ZM26.4215 38.4689C26.4215 34.8355 29.367 31.89 33.0004 31.89C36.6337 31.89 39.5792 34.8355 39.5792 38.4689C39.5792 42.1022 36.6337 45.0477 33.0004 45.0477C29.367 45.0477 26.4215 42.1022 26.4215 38.4689ZM33.0004 26.627C26.4602 26.627 21.1585 31.9287 21.1585 38.4689C21.1585 43.0517 23.7616 47.0263 27.5699 48.995H25.1058C22.9061 48.995 20.8519 50.0945 19.6318 51.9247L9.10561 67.7139C7.09017 70.737 7.90708 74.8217 10.9303 76.8369C13.3141 78.4264 16.3579 78.2545 18.5268 76.6285V92.4153C18.5268 96.0487 21.4724 98.9942 25.1058 98.9942C28.7391 98.9942 31.6846 96.0487 31.6846 92.4153V81.8892H34.3161V92.4153C34.3161 96.0487 37.2616 98.9942 40.895 98.9942C44.5283 98.9942 47.4738 96.0487 47.4738 92.4153V76.6285C49.6427 78.2545 52.6864 78.4264 55.0703 76.8369C58.0934 74.8217 58.9105 70.737 56.895 67.7139L46.3688 51.9247C45.1486 50.0945 43.0944 48.995 40.895 48.995H38.4308C42.2389 47.0263 44.8423 43.0517 44.8423 38.4689C44.8423 31.9287 39.5403 26.627 33.0004 26.627ZM24.0108 54.8441C24.255 54.4781 24.6658 54.2581 25.1058 54.2581H40.895C41.3347 54.2581 41.7457 54.4781 41.9897 54.8441L52.5158 70.6333C52.919 71.2378 52.7556 72.0549 52.1508 72.4578C51.5464 72.8609 50.7293 72.6975 50.3261 72.093L47.0317 67.1513L42.2107 59.9196V68.611V92.4153C42.2107 93.1422 41.6215 93.7311 40.895 93.7311C40.1681 93.7311 39.5792 93.1422 39.5792 92.4153V79.2577V76.6261H36.9477H29.0531H26.4215V79.2577V92.4153C26.4215 93.1422 25.8323 93.7311 25.1058 93.7311C24.3789 93.7311 23.79 93.1422 23.79 92.4153V68.611V59.9196L18.9688 67.1513L15.6743 72.093C15.2712 72.6975 14.4543 72.8609 13.8497 72.4578C13.245 72.0549 13.0817 71.2378 13.4848 70.6333L24.0108 54.8441Z" fill="url(#paint0_linear_348_4657)"/>
<defs>
<linearGradient id="paint0_linear_348_4657" x1="58" y1="18" x2="58" y2="98.9942" gradientUnits="userSpaceOnUse">
<stop stop-color="#0B6067"/>
<stop offset="1" stop-color="#359097"/>
</linearGradient>
</defs>
</svg>
