<svg width="116" height="116" viewBox="0 0 116 116" fill="none" xmlns="http://www.w3.org/2000/svg">
<path d="M101.75 54.875V61.125H26.75V26.75H58V20.5H23.625C22.7962 20.5 22.0013 20.8292 21.4153 21.4153C20.8292 22.0013 20.5 22.7962 20.5 23.625V61.125H14.25V17.375C14.25 16.5462 14.5792 15.7513 15.1653 15.1653C15.7513 14.5792 16.5462 14.25 17.375 14.25H64.25V8H17.375C14.8886 8 12.504 8.98772 10.7459 10.7459C8.98772 12.504 8 14.8886 8 17.375L8 79.875C8 80.7038 8.32924 81.4987 8.91529 82.0847C9.50134 82.6708 10.2962 83 11.125 83H38.7813L36.5625 98.625H33C32.1712 98.625 31.3763 98.9542 30.7903 99.5403C30.2042 100.126 29.875 100.921 29.875 101.75H23.625V108H92.375V101.75H86.125C86.125 100.921 85.7958 100.126 85.2097 99.5403C84.6237 98.9542 83.8288 98.625 83 98.625H79.4688L77.25 83H104.875C105.704 83 106.499 82.6708 107.085 82.0847C107.671 81.4987 108 80.7038 108 79.875V54.875H101.75ZM42.8437 98.625L45.0625 83H70.9062L73.125 98.625H42.8437ZM101.75 76.75H14.25V67.375H101.75V76.75Z" fill="url(#paint0_linear_348_4435)"/>
<path d="M75.4062 36.1252L71.4375 40.094L75.8437 44.5002L79.875 40.594C80.8522 41.1713 81.9036 41.6129 83 41.9065V48.6252H89.25V41.9377C90.3464 41.6442 91.3978 41.2026 92.375 40.6252L96.3438 44.594L100.75 40.1877L96.8438 36.1252C97.4211 35.148 97.8627 34.0967 98.1563 33.0002H104.875V26.7502H98.1875C97.8939 25.6538 97.4524 24.6025 96.875 23.6252L100.844 19.6565L96.4063 15.1565L92.375 19.1565C91.3978 18.5791 90.3464 18.1376 89.25 17.844V11.1252H83V17.8127C81.9036 18.1063 80.8522 18.5479 79.875 19.1252L75.8437 15.1565L71.4063 19.594L75.4062 23.6252C74.8289 24.6025 74.3873 25.6538 74.0937 26.7502H67.375V33.0002H74.0625C74.3659 34.0983 74.818 35.1497 75.4062 36.1252ZM86.125 23.6252C87.3611 23.6252 88.5695 23.9918 89.5973 24.6786C90.6251 25.3653 91.4262 26.3414 91.8992 27.4835C92.3723 28.6255 92.4961 29.8822 92.2549 31.0946C92.0138 32.3069 91.4185 33.4206 90.5444 34.2947C89.6703 35.1687 88.5567 35.764 87.3443 36.0052C86.1319 36.2463 84.8753 36.1225 83.7332 35.6495C82.5912 35.1764 81.6151 34.3754 80.9283 33.3476C80.2416 32.3198 79.875 31.1114 79.875 29.8752C79.875 28.2176 80.5335 26.6279 81.7056 25.4558C82.8777 24.2837 84.4674 23.6252 86.125 23.6252Z" fill="url(#paint1_linear_348_4435)"/>
<defs>
<linearGradient id="paint0_linear_348_4435" x1="58" y1="8" x2="58" y2="108" gradientUnits="userSpaceOnUse">
<stop stop-color="#0F646B"/>
<stop offset="1" stop-color="#338E95"/>
</linearGradient>
<linearGradient id="paint1_linear_348_4435" x1="86.125" y1="11.1252" x2="86.125" y2="48.6252" gradientUnits="userSpaceOnUse">
<stop stop-color="#0F646B"/>
<stop offset="1" stop-color="#338E95"/>
</linearGradient>
</defs>
</svg>
