<svg width="14" height="13" viewBox="0 0 14 13" fill="none" xmlns="http://www.w3.org/2000/svg">
<path fill-rule="evenodd" clip-rule="evenodd" d="M6.29144 7.19022C3.31315 7.19022 0.898777 9.60459 0.898777 12.5829H0C0 9.79509 1.8132 7.4308 4.32461 6.60498C3.34407 5.96293 2.69633 4.85466 2.69633 3.59511C2.69633 1.60958 4.30592 0 6.29144 0C8.27696 0 9.88655 1.60958 9.88655 3.59511C9.88655 5.58063 8.27696 7.19022 6.29144 7.19022ZM6.29144 6.29144C7.78058 6.29144 8.98777 5.08425 8.98777 3.59511C8.98777 2.10597 7.78058 0.898777 6.29144 0.898777C4.8023 0.898777 3.59511 2.10597 3.59511 3.59511C3.59511 5.08425 4.8023 6.29144 6.29144 6.29144ZM10.7853 6.77309L13.4817 8.32982V11.4433L10.7853 13L8.08899 11.4433V8.32982L10.7853 6.77309ZM8.98777 8.84873V10.9244L10.7853 11.9622L12.5829 10.9244V8.84873L10.7853 7.81091L8.98777 8.84873ZM10.7853 10.7853C10.2889 10.7853 9.88655 10.3829 9.88655 9.88655C9.88655 9.39017 10.2889 8.98777 10.7853 8.98777C11.2817 8.98777 11.6841 9.39017 11.6841 9.88655C11.6841 10.3829 11.2817 10.7853 10.7853 10.7853Z" fill="#8F8F8F"/>
</svg>
