<svg width="19" height="19" viewBox="0 0 19 19" fill="none" xmlns="http://www.w3.org/2000/svg">
<path d="M9.22998 9.89233C9.22998 10.3065 9.56577 10.6423 9.97998 10.6423C10.3942 10.6423 10.73 10.3065 10.73 9.89233C10.73 9.47812 10.3942 9.14233 9.97998 9.14233C9.56577 9.14233 9.22998 9.47812 9.22998 9.89233Z" stroke="#808191" stroke-width="2" stroke-linecap="round" stroke-linejoin="round"/>
<path d="M9.22998 15.1423C9.22998 15.5565 9.56577 15.8923 9.97998 15.8923C10.3942 15.8923 10.73 15.5565 10.73 15.1423C10.73 14.7281 10.3942 14.3923 9.97998 14.3923C9.56577 14.3923 9.22998 14.7281 9.22998 15.1423Z" stroke="#808191" stroke-width="2" stroke-linecap="round" stroke-linejoin="round"/>
<path d="M9.22998 4.64233C9.22998 5.05655 9.56577 5.39233 9.97998 5.39233C10.3942 5.39233 10.73 5.05655 10.73 4.64233C10.73 4.22812 10.3942 3.89233 9.97998 3.89233C9.56577 3.89233 9.22998 4.22812 9.22998 4.64233Z" stroke="#808191" stroke-width="2" stroke-linecap="round" stroke-linejoin="round"/>
</svg>
