<svg width="116" height="116" viewBox="0 0 116 116" fill="none" xmlns="http://www.w3.org/2000/svg">
<path d="M95.6875 16H21.3125C18.376 16 16 18.376 16 21.3125V95.6875C16 98.624 18.376 101 21.3125 101H95.6875C98.624 101 101 98.624 101 95.6875V21.3125C101 18.376 98.624 16 95.6875 16ZM23.9688 95.6875C22.5012 95.6875 21.3125 94.4988 21.3125 93.0312V23.9688C21.3125 22.5012 22.5012 21.3125 23.9688 21.3125H34.5938V69.125C34.5938 70.5926 35.7824 71.7812 37.25 71.7812H42.5625V95.6875H23.9688ZM47.875 95.6875V71.7812H53.1875C54.6551 71.7812 55.8438 70.5926 55.8438 69.125V21.3125H61.1562V69.125C61.1562 70.5926 62.3449 71.7812 63.8125 71.7812H69.125V95.6875H47.875ZM95.6875 93.0312C95.6875 94.4988 94.4988 95.6875 93.0312 95.6875H74.4375V71.7812H79.75C81.2176 71.7812 82.4062 70.5926 82.4062 69.125V21.3125H93.0312C94.4988 21.3125 95.6875 22.5012 95.6875 23.9688V93.0312Z" fill="url(#paint0_linear_348_4522)"/>
<defs>
<linearGradient id="paint0_linear_348_4522" x1="58.5" y1="16" x2="58.5" y2="101" gradientUnits="userSpaceOnUse">
<stop stop-color="#0B6067"/>
<stop offset="1" stop-color="#359097"/>
</linearGradient>
</defs>
</svg>
