<svg width="116" height="116" viewBox="0 0 116 116" fill="none" xmlns="http://www.w3.org/2000/svg">
<path d="M25 8V108H90.3846V8H25ZM71.1538 15.6923H82.6923V42.6154H71.1538V15.6923ZM32.6923 16.1131H44.2308V54.1538H32.6923V16.1131ZM51.9231 16.1131H63.4615V54.1538H51.9231V16.1131ZM76.9231 50.3077C80.1092 50.3077 82.6923 52.8908 82.6923 56.0769C82.6923 59.2631 80.1092 61.8462 76.9231 61.8462C73.7369 61.8462 71.1538 59.2631 71.1538 56.0769C71.1538 52.8908 73.7369 50.3077 76.9231 50.3077ZM51.9231 61.8462H63.2515L63.4615 100.308H52.1331L51.9231 61.8462ZM32.6923 63.1231H44.2308V100.308H32.6923V63.1231ZM71.1538 69.5385H82.6923V100.308H71.1538V69.5385Z" fill="url(#paint0_linear_348_4678)"/>
<defs>
<linearGradient id="paint0_linear_348_4678" x1="57.6923" y1="8" x2="57.6923" y2="108" gradientUnits="userSpaceOnUse">
<stop stop-color="#0B6067"/>
<stop offset="1" stop-color="#359097"/>
</linearGradient>
</defs>
</svg>
