<svg width="116" height="116" viewBox="0 0 116 116" fill="none" xmlns="http://www.w3.org/2000/svg">
<path d="M62.5 49H53.5C52.3065 49 51.1619 49.4741 50.318 50.318C49.4741 51.1619 49 52.3065 49 53.5C49 54.6935 49.4741 55.8381 50.318 56.682C51.1619 57.5259 52.3065 58 53.5 58H62.5C63.6935 58 64.8381 57.5259 65.682 56.682C66.5259 55.8381 67 54.6935 67 53.5C67 52.3065 66.5259 51.1619 65.682 50.318C64.8381 49.4741 63.6935 49 62.5 49ZM85 49C84.9871 45.0195 83.6551 41.1555 81.2124 38.0126C78.7697 34.8697 75.3541 32.6251 71.5 31.63V26.5C71.5 22.9196 70.0777 19.4858 67.5459 16.9541C65.0142 14.4223 61.5804 13 58 13C54.4196 13 50.9858 14.4223 48.4541 16.9541C45.9223 19.4858 44.5 22.9196 44.5 26.5V31.63C40.6459 32.6251 37.2303 34.8697 34.7876 38.0126C32.3449 41.1555 31.0129 45.0195 31 49C26.2261 49 21.6477 50.8964 18.2721 54.2721C14.8964 57.6477 13 62.2261 13 67V80.5C13 84.0804 14.4223 87.5142 16.9541 90.0459C19.4858 92.5777 22.9196 94 26.5 94H31.81C32.7384 96.626 34.4563 98.9005 36.7282 100.512C39.0001 102.123 41.7148 102.992 44.5 103H71.5C74.2852 102.992 76.9999 102.123 79.2718 100.512C81.5437 98.9005 83.2616 96.626 84.19 94H89.5C93.0804 94 96.5142 92.5777 99.0459 90.0459C101.578 87.5142 103 84.0804 103 80.5V67C103 62.2261 101.104 57.6477 97.7279 54.2721C94.3523 50.8964 89.7739 49 85 49ZM31 85H26.5C25.3065 85 24.1619 84.5259 23.318 83.682C22.4741 82.8381 22 81.6935 22 80.5V67C22 64.6131 22.9482 62.3239 24.636 60.636C26.3239 58.9482 28.6131 58 31 58V85ZM53.5 26.5C53.5 25.3065 53.9741 24.1619 54.818 23.318C55.6619 22.4741 56.8065 22 58 22C59.1935 22 60.3381 22.4741 61.182 23.318C62.0259 24.1619 62.5 25.3065 62.5 26.5V31H53.5V26.5ZM76 89.5C76 90.6935 75.5259 91.8381 74.682 92.682C73.8381 93.5259 72.6935 94 71.5 94H44.5C43.3065 94 42.1619 93.5259 41.318 92.682C40.4741 91.8381 40 90.6935 40 89.5V85C40 82.6131 40.9482 80.3239 42.636 78.636C44.3239 76.9482 46.6131 76 49 76H67C69.3869 76 71.6761 76.9482 73.364 78.636C75.0518 80.3239 76 82.6131 76 85V89.5ZM76 69.52C73.282 67.884 70.1723 67.0133 67 67H49C45.8277 67.0133 42.718 67.884 40 69.52V49C40 46.6131 40.9482 44.3239 42.636 42.636C44.3239 40.9482 46.6131 40 49 40H67C69.3869 40 71.6761 40.9482 73.364 42.636C75.0518 44.3239 76 46.6131 76 49V69.52ZM94 80.5C94 81.6935 93.5259 82.8381 92.682 83.682C91.8381 84.5259 90.6935 85 89.5 85H85V58C87.3869 58 89.6761 58.9482 91.364 60.636C93.0518 62.3239 94 64.6131 94 67V80.5Z" fill="url(#paint0_linear_348_4694)"/>
<defs>
<linearGradient id="paint0_linear_348_4694" x1="58" y1="13" x2="58" y2="103" gradientUnits="userSpaceOnUse">
<stop stop-color="#0B6067"/>
<stop offset="1" stop-color="#359097"/>
</linearGradient>
</defs>
</svg>
