<svg width="27" height="22" viewBox="0 0 27 22" fill="none" xmlns="http://www.w3.org/2000/svg">
<path d="M11.499 7.47593H11.8766C11.9864 7.47593 12.086 7.51931 12.1593 7.58985C12.3053 7.70642 12.4573 7.79942 12.613 7.86229C12.7562 7.92009 12.9043 7.95183 13.0555 7.95183C13.2067 7.95183 13.3548 7.92009 13.498 7.86229C13.6625 7.79589 13.8227 7.69586 13.9762 7.56995L14.2344 7.88391L13.9756 7.56848C14.0516 7.50618 14.1433 7.47589 14.2344 7.47593H14.612C15.4933 7.47593 16.2943 7.8362 16.8746 8.41658C17.455 8.99697 17.8153 9.79792 17.8153 10.6793V12.3565C17.8153 12.5818 17.6326 12.7645 17.4073 12.7645H8.70365C8.47833 12.7645 8.29566 12.5818 8.29566 12.3565V10.6793C8.29566 9.79791 8.65594 8.99696 9.23632 8.41658C9.81671 7.8362 10.6177 7.47593 11.499 7.47593ZM11.7387 8.29189H11.499C10.8429 8.29189 10.2461 8.56062 9.81324 8.9935C9.38036 9.4264 9.11163 10.0232 9.11163 10.6793V11.9485H16.9993V10.6793C16.9993 10.0232 16.7306 9.4264 16.2977 8.9935C15.8648 8.56062 15.2681 8.29189 14.612 8.29189H14.3723C14.1904 8.427 13.9994 8.53753 13.8008 8.6177C13.5607 8.71459 13.3114 8.7678 13.0555 8.7678C12.7995 8.7678 12.5502 8.71459 12.3102 8.6177C12.1115 8.53753 11.9205 8.427 11.7387 8.29189Z" fill="white"/>
<path d="M13.0555 0C13.981 0 14.8248 0.227221 15.4279 0.709494C15.9948 1.16281 16.3409 1.8231 16.3409 2.70894C16.3409 3.64816 15.93 4.90246 15.2799 5.84565C14.7039 6.68133 13.9303 7.29154 13.0555 7.29154C12.1806 7.29154 11.407 6.68133 10.831 5.84565C10.1809 4.90245 9.76999 3.64817 9.76999 2.70894C9.76999 1.8231 10.1161 1.16281 10.683 0.709494C11.2861 0.227221 12.1299 0 13.0555 0ZM14.9211 1.3438C14.4724 0.985005 13.8067 0.815969 13.0555 0.815969C12.3042 0.815969 11.6385 0.985005 11.1899 1.3438C10.8149 1.64362 10.586 2.09325 10.586 2.70894C10.586 3.5015 10.9401 4.57065 11.5004 5.38351C11.9354 6.01468 12.4838 6.47559 13.0555 6.47559C13.6272 6.47559 14.1755 6.01468 14.6106 5.38351C15.1708 4.57065 15.5249 3.5015 15.5249 2.70894C15.5249 2.09325 15.296 1.64362 14.9211 1.3438Z" fill="white"/>
<path d="M20.6676 16.4839H20.9894C21.099 16.4839 21.1985 16.5271 21.2718 16.5975C21.3905 16.6917 21.5136 16.7669 21.6393 16.8176C21.7542 16.864 21.8729 16.8895 21.9941 16.8895C22.1152 16.8895 22.234 16.864 22.3489 16.8176C22.4832 16.7634 22.6146 16.6813 22.7407 16.5779L22.9988 16.8919L22.7401 16.5765C22.816 16.5141 22.9077 16.4838 22.9988 16.4839H23.3206C24.0884 16.4839 24.7861 16.7977 25.2916 17.3032C25.7972 17.8088 26.111 18.5065 26.111 19.2742V20.7037C26.111 20.929 25.9283 21.1117 25.703 21.1117H18.2852C18.0599 21.1117 17.8772 20.929 17.8772 20.7037V19.2742C17.8772 18.5065 18.191 17.8087 18.6965 17.3032C19.2021 16.7977 19.8998 16.4839 20.6676 16.4839ZM20.8524 17.2998H20.6676C20.125 17.2998 19.6315 17.5221 19.2735 17.8801C18.9154 18.2382 18.6932 18.7317 18.6932 19.2742V20.2957H25.295V19.2742C25.295 18.7317 25.0728 18.2382 24.7147 17.8801C24.3567 17.5221 23.8632 17.2998 23.3206 17.2998H23.1358C22.9816 17.4126 22.8199 17.5052 22.6517 17.573C22.4399 17.6585 22.22 17.7054 21.9941 17.7054C21.7683 17.7054 21.5483 17.6585 21.3365 17.573C21.1684 17.5051 21.0066 17.4126 20.8524 17.2998Z" fill="white"/>
<path d="M21.994 9.99344C22.7957 9.99344 23.528 10.1914 24.0534 10.6115C24.5507 11.0092 24.8544 11.5876 24.8544 12.3624C24.8544 13.1737 24.5 14.2564 23.9393 15.0699C23.438 15.7972 22.762 16.3283 21.994 16.3283C21.226 16.3283 20.5501 15.7972 20.0488 15.0699C19.4881 14.2564 19.1337 13.1738 19.1337 12.3624C19.1337 11.5876 19.4374 11.0092 19.9347 10.6115C20.4601 10.1914 21.1924 9.99344 21.994 9.99344ZM23.5466 11.2458C23.1756 10.9492 22.6214 10.8094 21.994 10.8094C21.3666 10.8094 20.8125 10.9492 20.4415 11.2458C20.1361 11.49 19.9497 11.8577 19.9497 12.3624C19.9497 13.0271 20.2473 13.9246 20.7181 14.6078C21.0785 15.1306 21.5292 15.5124 21.994 15.5124C22.4589 15.5124 22.9096 15.1305 23.2699 14.6077C23.7408 13.9246 24.0384 13.0271 24.0384 12.3624C24.0384 11.8577 23.8519 11.49 23.5466 11.2458Z" fill="white"/>
<path d="M2.79035 16.4839H3.11214C3.22172 16.4839 3.32121 16.5271 3.39451 16.5974C3.51318 16.6917 3.63631 16.7668 3.76212 16.8176C3.87703 16.864 3.99575 16.8895 4.11688 16.8895C4.23803 16.8895 4.35675 16.864 4.47163 16.8176C4.60604 16.7634 4.73737 16.6813 4.86346 16.5779L5.12164 16.8919L4.86287 16.5764C4.93883 16.5141 5.03052 16.4838 5.12164 16.4839H5.44343C6.21119 16.4839 6.90889 16.7977 7.41445 17.3032C7.91997 17.8088 8.23379 18.5065 8.23379 19.2742V20.7037C8.23379 20.929 8.05112 21.1117 7.8258 21.1117H0.407984C0.18267 21.1117 0 20.929 0 20.7037V19.2742C0 18.5065 0.313817 17.8088 0.819341 17.3032C1.32486 16.7977 2.02256 16.4839 2.79035 16.4839ZM2.97521 17.2998H2.79035C2.24782 17.2998 1.75429 17.5221 1.39626 17.8801C1.03823 18.2382 0.815967 18.7317 0.815967 19.2742V20.2957H7.41782V19.2742C7.41782 18.7317 7.19556 18.2382 6.83753 17.8801C6.47948 17.5221 5.98594 17.2998 5.44344 17.2998H5.25856C5.10438 17.4126 4.94263 17.5052 4.77446 17.573C4.5627 17.6585 4.34274 17.7054 4.11689 17.7054C3.89103 17.7054 3.67108 17.6585 3.45931 17.573C3.29114 17.5051 3.12937 17.4126 2.97521 17.2998Z" fill="white"/>
<path d="M4.11687 9.99344C4.91854 9.99344 5.65081 10.1914 6.17622 10.6115C6.67355 11.0092 6.97721 11.5875 6.97721 12.3624C6.97721 13.1737 6.62283 14.2564 6.06214 15.0699C5.56081 15.7972 4.88487 16.3283 4.11687 16.3283C3.34885 16.3283 2.67292 15.7972 2.17162 15.0699C1.6109 14.2564 1.25653 13.1737 1.25653 12.3624C1.25653 11.5875 1.56019 11.0092 2.05752 10.6115C2.58294 10.1914 3.31521 9.99344 4.11687 9.99344ZM5.66942 11.2458C5.29842 10.9492 4.74429 10.8094 4.11687 10.8094C3.48946 10.8094 2.93532 10.9492 2.56432 11.2458C2.25896 11.49 2.0725 11.8577 2.0725 12.3624C2.0725 13.0271 2.37009 13.9246 2.84098 14.6077C3.20134 15.1305 3.65203 15.5123 4.11687 15.5123C4.58172 15.5123 5.03243 15.1306 5.39279 14.6078C5.86365 13.9246 6.16125 13.0271 6.16125 12.3624C6.16125 11.8577 5.97478 11.49 5.66942 11.2458Z" fill="white"/>
</svg>
