<svg width="116" height="116" viewBox="0 0 116 116" fill="none" xmlns="http://www.w3.org/2000/svg">
<path d="M77.3141 8L74.787 10.7677C69.1312 16.9952 64.4681 19.778 60.5872 21.5981C56.7064 23.4182 53.4422 23.9597 50.2383 26.4116C46.8237 29.0289 41.8598 34.0529 39.769 43.0181C35.2864 43.9958 32.0072 45.7106 29.42 47.9519C26.8628 50.1631 24.9374 52.6751 22.5608 55.4128C22.5457 55.4428 22.5758 55.503 22.5608 55.5331C19.1613 59.444 16.1829 63.6558 10.4067 65.8821L8 66.8448V108H81.4055C85.6173 107.774 88.5355 104.856 90.3105 101.983C92.0854 99.1101 93.0632 95.9964 93.5596 93.4392C94.8381 86.926 97.1697 68.1685 97.1697 68.1685L97.29 67.8075V67.4464C97.1697 64.8442 96.1017 62.633 94.7629 60.5872L99.0951 47.7112L105.954 37.3622L107.88 34.5945L105.353 32.3081L80.0818 10.4067L77.3141 8ZM77.5548 18.5897L97.651 36.0385L92.3562 43.8604L91.9952 44.2214L91.8748 44.8231L88.3851 55.1721C86.565 54.42 84.6847 53.8935 82.6089 53.9687H82.3682L58.0602 54.089H54.2094V69.0108C53.6679 73.2076 51.3363 74.8321 48.4332 75.9904C47.4705 76.3815 47.3502 76.1709 46.5078 76.3514V53.9687C45.8761 39.6937 50.9603 35.5872 54.9314 32.5487C56.0295 31.7064 59.2485 30.7286 63.8363 28.5776C67.6721 26.7726 72.4404 23.5385 77.5548 18.5897ZM39.0469 51.6823C39.0319 52.5548 38.7611 53.1715 38.8063 54.089V54.2094V84.8953H42.657C42.657 84.8953 46.7786 84.8502 51.201 83.0903C55.6233 81.3303 60.9633 77.2088 61.911 69.9735V61.7906L82.6089 61.6703H82.7292C86.2792 61.4747 89.2274 64.1673 89.4681 67.6871C89.4531 67.7473 89.2726 69.1763 89.2274 69.4922H73.4633V77.1937H88.2647C87.8586 80.1721 87.4826 82.0373 87.0614 84.8953H73.4633V92.5969H85.858C85.4519 94.3117 84.6396 96.3574 83.6919 97.8917C82.639 99.6065 81.7365 100.253 80.9242 100.298H15.7016V71.5379C21.944 68.2286 25.8249 63.4603 28.3369 60.5872C30.9392 57.6089 32.7292 55.3526 34.4741 53.8484C35.6173 52.8706 37.4073 52.3141 39.0469 51.6823Z" fill="url(#paint0_linear_348_4686)"/>
<defs>
<linearGradient id="paint0_linear_348_4686" x1="57.9398" y1="8" x2="57.9398" y2="108" gradientUnits="userSpaceOnUse">
<stop stop-color="#0B6067"/>
<stop offset="1" stop-color="#359097"/>
</linearGradient>
</defs>
</svg>
