<svg width="84" height="72" viewBox="0 0 84 72" fill="none" xmlns="http://www.w3.org/2000/svg">
<path d="M30.0485 43.7606C28.5006 41.4983 27.6274 38.7597 27.6274 35.8227C27.6274 27.9642 33.9777 21.614 41.8362 21.614C49.6947 21.614 56.045 27.9642 56.045 35.8227C56.045 43.6812 49.6947 50.0315 41.8362 50.0315" stroke="#292D32" stroke-width="5.95341" stroke-linecap="round" stroke-linejoin="round"/>
<path d="M63.9033 10.3425C57.1958 5.57981 49.6548 3 41.8359 3C27.8257 3 14.7679 11.2554 5.67904 25.5436C2.10699 31.1399 2.10699 40.5463 5.67904 46.1425C14.7679 60.4307 27.8257 68.6861 41.8359 68.6861C55.8463 68.6861 68.9041 60.4307 77.993 46.1425C81.5651 40.5463 81.5651 31.1399 77.993 25.5436" stroke="#292D32" stroke-width="5.95341" stroke-linecap="round" stroke-linejoin="round"/>
</svg>
