<svg width="16" height="16" viewBox="0 0 16 16" fill="none" xmlns="http://www.w3.org/2000/svg">
<path d="M10.1861 15.6921H6.08047C2.36486 15.6921 0.777344 14.1046 0.777344 10.389V6.28335C0.777344 2.56774 2.36486 0.980225 6.08047 0.980225H7.44901C7.72957 0.980225 7.96222 1.21288 7.96222 1.49343C7.96222 1.77398 7.72957 2.00664 7.44901 2.00664H6.08047C2.92596 2.00664 1.80375 3.12884 1.80375 6.28335V10.389C1.80375 13.5435 2.92596 14.6657 6.08047 14.6657H10.1861C13.3406 14.6657 14.4628 13.5435 14.4628 10.389V9.02044C14.4628 8.73989 14.6955 8.50724 14.976 8.50724C15.2566 8.50724 15.4892 8.73989 15.4892 9.02044V10.389C15.4892 14.1046 13.9017 15.6921 10.1861 15.6921Z" fill="white"/>
<path d="M5.73782 12.2299C5.32041 12.2299 4.93722 12.0793 4.65667 11.8056C4.32137 11.4703 4.17768 10.9845 4.25295 10.4713L4.54718 8.41164C4.60192 8.01476 4.86195 7.50156 5.1425 7.221L10.5345 1.8289C11.8963 0.467191 13.2785 0.467191 14.6402 1.8289C15.386 2.57476 15.7213 3.3343 15.6529 4.09384C15.5913 4.70969 15.2629 5.31185 14.6402 5.9277L9.24811 11.3198C8.96756 11.6004 8.45435 11.8604 8.05747 11.9151L5.99784 12.2094C5.90889 12.2299 5.81993 12.2299 5.73782 12.2299ZM11.2599 2.55423L5.86783 7.94633C5.73782 8.07635 5.58728 8.37743 5.55991 8.55534L5.26567 10.615C5.2383 10.8134 5.27936 10.9777 5.382 11.0803C5.48464 11.1829 5.64886 11.224 5.8473 11.1966L7.90693 10.9024C8.08485 10.875 8.39277 10.7245 8.51594 10.5945L13.908 5.20237C14.3528 4.75759 14.5854 4.36071 14.6197 3.9912C14.6607 3.54642 14.4281 3.07428 13.908 2.54738C12.8132 1.45255 12.0605 1.76047 11.2599 2.55423Z" fill="white"/>
<path d="M13.5041 6.85128C13.4562 6.85128 13.4083 6.84444 13.3672 6.83075C11.5676 6.32439 10.1375 4.89426 9.63109 3.09462C9.55582 2.82091 9.71321 2.54036 9.98692 2.45824C10.2606 2.38297 10.5412 2.54036 10.6164 2.81406C11.027 4.27157 12.1834 5.42799 13.6409 5.83856C13.9146 5.91383 14.072 6.20122 13.9968 6.47493C13.9352 6.70758 13.7299 6.85128 13.5041 6.85128Z" fill="white"/>
</svg>
