<svg width="116" height="116" viewBox="0 0 116 116" fill="none" xmlns="http://www.w3.org/2000/svg">
<path d="M25.4803 41.7661V57.0695C25.4803 58.8601 24.558 60.5246 23.0398 61.4742L18.9629 64.0233" stroke="url(#paint0_linear_348_4446)" stroke-width="2.96545"/>
<path d="M35.8701 41.7661V57.1269C35.8701 58.8864 36.7605 60.5261 38.2363 61.484L42.2192 64.0698" stroke="url(#paint1_linear_348_4446)" stroke-width="2.96545"/>
<path d="M22.9194 43.065L22.897 45.6624H22.9194V43.065ZM9.50305 57.4496L11.495 59.1167L11.5134 59.0946L11.5313 59.0722L9.50305 57.4496ZM8.99684 58.2283L11.3265 59.3767L11.3285 59.3728L8.99684 58.2283ZM8.59793 59.8873L11.195 59.9296L11.195 59.926L8.59793 59.8873ZM8.94484 61.558L11.3111 60.4868L11.3093 60.4826L8.94484 61.558ZM9.42648 62.352L11.5044 60.7935L11.4872 60.7704L11.4695 60.7481L9.42648 62.352ZM18.9873 74.0115H21.5848V72.173L19.8507 71.5619L18.9873 74.0115ZM26.7796 80.7273V78.1299H24.1822V80.7273H26.7796ZM34.5718 80.7273H37.1692V78.1299H34.5718V80.7273ZM42.364 74.0115L41.5004 71.5619L39.7666 72.173V74.0115H42.364ZM51.9248 62.3517L49.8817 60.7478L49.864 60.7704L49.8469 60.7933L51.9248 62.3517ZM52.4064 61.558L50.042 60.4826L50.0399 60.4868L52.4064 61.558ZM52.7531 59.8873L50.156 59.926L50.1562 59.9296L52.7531 59.8873ZM52.3542 58.2283L50.0225 59.3728L50.0246 59.3767L52.3542 58.2283ZM51.8479 57.4496L49.8199 59.0722L49.8378 59.0946L49.8562 59.1167L51.8479 57.4496ZM41.5326 44.5554L39.4905 46.1605L39.5046 46.178L41.5326 44.5554ZM41.4061 44.4026L39.4461 46.1068L39.4479 46.1091L41.4061 44.4026ZM40.156 43.4486L39.029 45.7889L39.0323 45.7904L40.156 43.4486ZM38.63 43.0683L38.5207 45.6634H38.5238L38.63 43.0683ZM38.4318 43.065V45.6624H38.4539L38.4318 43.065ZM43.9295 60.025L46.0074 61.5834L47.2147 59.9738L45.9578 58.4024L43.9295 60.025ZM42.364 58.0681L44.3921 56.4455L39.7666 50.6634V58.0681H42.364ZM42.364 62.1125H39.7666V69.9047L44.442 63.6709L42.364 62.1125ZM17.4216 60.025L15.3934 58.4024L14.1364 59.9738L15.3437 61.5834L17.4216 60.025ZM18.9873 62.1128L16.9094 63.6712L21.5848 69.905V62.1128H18.9873ZM18.9873 58.0678H21.5848V50.6634L16.9591 56.4452L18.9873 58.0678ZM38.4677 28.7793C38.4677 33.0829 34.9791 36.5715 30.6755 36.5715V41.7663C37.8482 41.7663 43.6625 35.9517 43.6625 28.7793H38.4677ZM30.6755 20.987C34.9791 20.987 38.4677 24.4756 38.4677 28.7793H43.6625C43.6625 21.6068 37.8482 15.7922 30.6755 15.7922V20.987ZM22.8833 28.7793C22.8833 24.4756 26.3721 20.987 30.6755 20.987V15.7922C23.503 15.7922 17.6886 21.6068 17.6886 28.7793H22.8833ZM30.6755 36.5715C26.3721 36.5715 22.8833 33.0829 22.8833 28.7793H17.6886C17.6886 35.9517 23.503 41.7663 30.6755 41.7663V36.5715ZM21.8692 46.1499C22.1274 45.827 22.5053 45.659 22.897 45.6624L22.9417 40.4676C21.0249 40.4512 19.1086 41.2847 17.8128 42.9047L21.8692 46.1499ZM11.5313 59.0722L21.8692 46.1499L17.8128 42.9047L7.47484 55.827L11.5313 59.0722ZM11.3285 59.3728C11.3733 59.2816 11.4288 59.1956 11.495 59.1167L7.51115 55.7826C7.17359 56.186 6.89105 56.6237 6.66518 57.0839L11.3285 59.3728ZM11.195 59.926C11.1979 59.7356 11.2419 59.5486 11.3265 59.3767L6.66718 57.0798C6.23365 57.959 6.01487 58.9065 6.00081 59.8486L11.195 59.926ZM11.3093 60.4826C11.23 60.3083 11.1919 60.12 11.195 59.9296L6.00087 59.8447C5.98549 60.7868 6.17458 61.7406 6.58043 62.633L11.3093 60.4826ZM11.4695 60.7481C11.4058 60.6668 11.353 60.5793 11.3111 60.4868L6.57856 62.6289C6.78996 63.0959 7.05871 63.5421 7.38349 63.9559L11.4695 60.7481ZM19.247 71.1169L11.5044 60.7935L7.34856 63.9104L15.0912 74.2338L19.247 71.1169ZM19.8507 71.5619C19.6188 71.48 19.409 71.333 19.247 71.1169L15.0912 74.2338C15.8879 75.2961 16.9541 76.0489 18.1239 76.4611L19.8507 71.5619ZM21.5848 101.507V74.0115H16.3899V101.507H21.5848ZM22.8835 102.805C22.1661 102.805 21.5848 102.224 21.5848 101.507H16.3899C16.3899 105.093 19.2972 108 22.8835 108V102.805ZM24.1822 101.507C24.1822 102.224 23.6007 102.805 22.8835 102.805V108C26.4698 108 29.377 105.093 29.377 101.507H24.1822ZM24.1822 80.7273V101.507H29.377V80.7273H24.1822ZM34.5718 78.1299H26.7796V83.3247H34.5718V78.1299ZM37.1692 101.507V80.7273H31.9744V101.507H37.1692ZM38.4679 102.805C37.7505 102.805 37.1692 102.224 37.1692 101.507H31.9744C31.9744 105.093 34.8817 108 38.4679 108V102.805ZM39.7666 101.507C39.7666 102.224 39.1851 102.805 38.4679 102.805V108C42.0542 108 44.9614 105.093 44.9614 101.507H39.7666ZM39.7666 74.0115V101.507H44.9614V74.0115H39.7666ZM43.2274 76.4611C44.3973 76.0486 45.4633 75.2959 46.2599 74.2338L42.104 71.1169C41.9422 71.333 41.7324 71.48 41.5004 71.5619L43.2274 76.4611ZM46.2599 74.2338L54.0027 63.9102L49.8469 60.7933L42.104 71.1169L46.2599 74.2338ZM50.0399 60.4868C49.9981 60.5793 49.9453 60.6668 49.8817 60.7478L53.9677 63.9556C54.2926 63.5421 54.5612 63.0959 54.7726 62.6289L50.0399 60.4868ZM54.7708 62.633C55.1765 61.7406 55.3656 60.7868 55.3503 59.8447L50.1562 59.9296C50.1594 60.12 50.1212 60.3083 50.042 60.4826L54.7708 62.633ZM50.0246 59.3767C50.1092 59.5483 50.1531 59.7356 50.156 59.926L55.3503 59.8486C55.3362 58.9065 55.1175 57.959 54.684 57.0798L50.0246 59.3767ZM54.6859 57.0839C54.4601 56.6237 54.1775 56.186 53.8399 55.7826L49.8562 59.1167C49.9222 59.1956 49.9778 59.2816 50.0225 59.3728L54.6859 57.0839ZM39.5046 46.178L49.8199 59.0722L53.8762 55.827L43.5609 42.9328L39.5046 46.178ZM39.4479 46.1091C39.4625 46.1257 39.4768 46.1429 39.4905 46.1605L43.5749 42.9504C43.5069 42.8639 43.4365 42.779 43.3643 42.6961L39.4479 46.1091ZM39.0323 45.7904C39.1848 45.8637 39.3253 45.9681 39.4461 46.1068L43.3661 42.6982C42.7711 42.0138 42.0573 41.48 41.2794 41.1068L39.0323 45.7904ZM38.5238 45.6634C38.7074 45.6709 38.8768 45.7156 39.029 45.7889L41.2827 41.1083C40.5053 40.7341 39.6425 40.5102 38.7365 40.473L38.5238 45.6634ZM38.4539 45.6624C38.4762 45.6621 38.4986 45.6624 38.5207 45.6634L38.7394 40.4733C38.6295 40.4686 38.5196 40.4668 38.4095 40.4676L38.4539 45.6624ZM22.9194 45.6624H38.4318V40.4676H22.9194V45.6624ZM45.9578 58.4024L44.3921 56.4455L40.3357 59.6907L41.9012 61.6476L45.9578 58.4024ZM39.7666 58.0681V62.1125H44.9614V58.0681H39.7666ZM41.8516 58.4665L40.2861 60.5541L44.442 63.6709L46.0074 61.5834L41.8516 58.4665ZM15.3437 61.5834L16.9094 63.6712L21.0653 60.5543L19.4995 58.4665L15.3437 61.5834ZM16.9591 56.4452L15.3934 58.4024L19.4498 61.6476L21.0156 59.6904L16.9591 56.4452ZM21.5848 62.1128V58.0678H16.3899V62.1128H21.5848Z" fill="url(#paint2_linear_348_4446)"/>
<path fill-rule="evenodd" clip-rule="evenodd" d="M41.0658 59.5171L35.871 66.4433C33.719 69.3124 34.3006 73.3825 37.1697 75.5342C40.0385 77.6862 44.1086 77.1046 46.2606 74.2355L53.0788 65.1446H46.5853L42.1047 71.1187C41.6743 71.6927 40.8603 71.8088 40.2866 71.3784C39.7128 70.9483 39.5964 70.1342 40.0268 69.5602L43.3385 65.1446H41.0658V59.5171Z" fill="url(#paint3_linear_348_4446)"/>
<path fill-rule="evenodd" clip-rule="evenodd" d="M20.2754 59.5171L25.4702 66.4433C27.6219 69.3124 27.0406 73.3825 24.1715 75.5342C21.3024 77.6862 17.2323 77.1046 15.0806 74.2355L8.26221 65.1446H14.7557L19.2364 71.1187C19.6668 71.6927 20.4808 71.8088 21.0546 71.3784C21.6284 70.9483 21.7447 70.1342 21.3143 69.5602L18.0025 65.1446H20.2754V59.5171Z" fill="url(#paint4_linear_348_4446)"/>
<path d="M17.6885 46.9611V41.7663C17.6885 38.8972 20.0143 36.5715 22.8834 36.5715" stroke="url(#paint5_linear_348_4446)" stroke-width="2.96545"/>
<path d="M43.6626 46.9611V41.7663C43.6626 38.8972 41.3366 36.5715 38.4678 36.5715" stroke="url(#paint6_linear_348_4446)" stroke-width="2.96545"/>
<path d="M80.0257 41.7661V57.0695C80.0257 58.8601 79.1034 60.5246 77.5852 61.4742L73.5083 64.0233" stroke="url(#paint7_linear_348_4446)" stroke-width="2.96545"/>
<path d="M90.4155 41.7661V57.1269C90.4155 58.8864 91.3059 60.5261 92.7818 61.484L96.7646 64.0698" stroke="url(#paint8_linear_348_4446)" stroke-width="2.96545"/>
<path d="M77.4647 43.065L77.4424 45.6624H77.4647V43.065ZM64.0484 57.4496L66.0403 59.1167L66.0587 59.0946L66.0767 59.0722L64.0484 57.4496ZM63.5421 58.2283L65.872 59.3767L65.8738 59.3728L63.5421 58.2283ZM63.1434 59.8873L65.7403 59.9296V59.926L63.1434 59.8873ZM63.4902 61.558L65.8564 60.4868L65.8546 60.4826L63.4902 61.558ZM63.9717 62.352L66.0497 60.7935L66.0325 60.7704L66.0148 60.7481L63.9717 62.352ZM71.5819 72.4985L74.0915 73.1678L74.4164 71.9491L73.6598 70.94L71.5819 72.4985ZM68.0021 85.9221L65.4925 85.2528L64.6213 88.5195H68.0021V85.9221ZM73.5328 85.9221H76.1302V83.3247H73.5328V85.9221ZM81.325 85.9221V83.3247H78.7276V85.9221H81.325ZM89.1172 85.9221H91.7146V83.3247H89.1172V85.9221ZM96.9094 85.9221V83.3247H94.312V85.9221H96.9094ZM101.768 85.9221V88.5195H105.605L104.18 84.9574L101.768 85.9221ZM96.992 73.9811L96.0735 71.5517L93.5972 72.4878L94.5803 74.9457L96.992 73.9811ZM106.47 62.3517L104.427 60.7478L104.409 60.7704L104.392 60.7933L106.47 62.3517ZM106.952 61.558L104.587 60.4826L104.585 60.4868L106.952 61.558ZM107.298 59.8873L104.701 59.926L104.702 59.9296L107.298 59.8873ZM106.9 58.2283L104.568 59.3728L104.57 59.3767L106.9 58.2283ZM106.393 57.4496L104.365 59.0722L104.383 59.0946L104.402 59.1167L106.393 57.4496ZM96.078 44.5554L94.0359 46.1605L94.0499 46.178L96.078 44.5554ZM95.9515 44.4026L93.9915 46.1068L93.9933 46.1091L95.9515 44.4026ZM94.7013 43.4486L93.5743 45.7889L93.5777 45.7904L94.7013 43.4486ZM93.1754 43.0683L93.066 45.6634H93.0691L93.1754 43.0683ZM92.9772 43.065V45.6624H92.9993L92.9772 43.065ZM98.4748 60.025L100.553 61.5834L101.76 59.9738L100.503 58.4024L98.4748 60.025ZM96.9094 58.0681L98.9374 56.4455L94.312 50.6634V58.0681H96.9094ZM96.9094 62.1125H94.312V69.9047L98.9873 63.6709L96.9094 62.1125ZM71.9671 60.025L69.9387 58.4024L68.6816 59.9738L69.8891 61.5834L71.9671 60.025ZM73.5328 62.1128L71.4548 63.6712L76.1302 69.905V62.1128H73.5328ZM73.5328 58.0678H76.1302V50.6634L71.5045 56.4452L73.5328 58.0678ZM93.013 28.7793C93.013 33.0829 89.5245 36.5715 85.2208 36.5715V41.7663C92.3935 41.7663 98.2078 35.9517 98.2078 28.7793H93.013ZM85.2208 20.987C89.5245 20.987 93.013 24.4756 93.013 28.7793H98.2078C98.2078 21.6068 92.3935 15.7922 85.2208 15.7922V20.987ZM77.4286 28.7793C77.4286 24.4756 80.9174 20.987 85.2208 20.987V15.7922C78.0484 15.7922 72.2338 21.6068 72.2338 28.7793H77.4286ZM85.2208 36.5715C80.9174 36.5715 77.4286 33.0829 77.4286 28.7793H72.2338C72.2338 35.9517 78.0484 41.7663 85.2208 41.7663V36.5715ZM76.4146 46.1499C76.6728 45.827 77.0507 45.659 77.4424 45.6624L77.4871 40.4676C75.5702 40.4512 73.6541 41.2847 72.3582 42.9047L76.4146 46.1499ZM66.0767 59.0722L76.4146 46.1499L72.3582 42.9047L62.0203 55.827L66.0767 59.0722ZM65.8738 59.3728C65.9187 59.2816 65.9741 59.1956 66.0403 59.1167L62.0564 55.7826C61.719 56.186 61.4364 56.6237 61.2104 57.0839L65.8738 59.3728ZM65.7403 59.926C65.7432 59.7356 65.7873 59.5486 65.872 59.3767L61.2125 57.0798C60.779 57.959 60.5603 58.9065 60.5463 59.8486L65.7403 59.926ZM65.8546 60.4826C65.7754 60.3083 65.7372 60.12 65.7403 59.9296L60.5463 59.8447C60.5309 60.7868 60.72 61.7406 61.1258 62.633L65.8546 60.4826ZM66.0148 60.7481C65.9512 60.6668 65.8982 60.5793 65.8564 60.4868L61.1239 62.6289C61.3354 63.0959 61.6039 63.5421 61.9289 63.9559L66.0148 60.7481ZM73.6598 70.94L66.0497 60.7935L61.8938 63.9104L69.5039 74.0569L73.6598 70.94ZM70.5117 86.5915L74.0915 73.1678L69.072 71.8291L65.4925 85.2528L70.5117 86.5915ZM73.5328 83.3247H68.0021V88.5195H73.5328V83.3247ZM76.1302 101.507V85.9221H70.9354V101.507H76.1302ZM77.4289 102.805C76.7115 102.805 76.1302 102.224 76.1302 101.507H70.9354C70.9354 105.093 73.8426 108 77.4289 108V102.805ZM78.7276 101.507C78.7276 102.224 78.146 102.805 77.4289 102.805V108C81.0151 108 83.9224 105.093 83.9224 101.507H78.7276ZM78.7276 85.9221V101.507H83.9224V85.9221H78.7276ZM89.1172 83.3247H81.325V88.5195H89.1172V83.3247ZM91.7146 101.507V85.9221H86.5198V101.507H91.7146ZM93.0133 102.805C92.2959 102.805 91.7146 102.224 91.7146 101.507H86.5198C86.5198 105.093 89.4271 108 93.0133 108V102.805ZM94.312 101.507C94.312 102.224 93.7304 102.805 93.0133 102.805V108C96.5995 108 99.5068 105.093 99.5068 101.507H94.312ZM94.312 85.9221V101.507H99.5068V85.9221H94.312ZM101.768 83.3247H96.9094V88.5195H101.768V83.3247ZM94.5803 74.9457L99.3567 86.8868L104.18 84.9574L99.4037 73.0167L94.5803 74.9457ZM97.9104 76.4107C99.0265 75.9889 100.04 75.2538 100.805 74.2338L96.6494 71.1169C96.4936 71.3247 96.2941 71.4683 96.0735 71.5517L97.9104 76.4107ZM100.805 74.2338L108.548 63.9102L104.392 60.7933L96.6494 71.1169L100.805 74.2338ZM104.585 60.4868C104.543 60.5793 104.491 60.6668 104.427 60.7478L108.513 63.9556C108.838 63.5421 109.107 63.0959 109.318 62.6289L104.585 60.4868ZM109.316 62.633C109.722 61.7406 109.911 60.7868 109.896 59.8447L104.702 59.9296C104.705 60.12 104.667 60.3083 104.587 60.4826L109.316 62.633ZM104.57 59.3767C104.655 59.5483 104.698 59.7356 104.701 59.926L109.896 59.8486C109.882 58.9065 109.663 57.959 109.229 57.0798L104.57 59.3767ZM109.231 57.0839C109.005 56.6237 108.723 56.186 108.385 55.7826L104.402 59.1167C104.468 59.1956 104.523 59.2816 104.568 59.3728L109.231 57.0839ZM94.0499 46.178L104.365 59.0722L108.422 55.827L98.1063 42.9328L94.0499 46.178ZM93.9933 46.1091C94.0078 46.1257 94.0221 46.1429 94.0359 46.1605L98.1203 42.9504C98.0523 42.8639 97.9819 42.779 97.9097 42.6961L93.9933 46.1091ZM93.5777 45.7904C93.7302 45.8637 93.8707 45.9681 93.9915 46.1068L97.9115 42.6982C97.3164 42.0138 96.6026 41.48 95.8247 41.1068L93.5777 45.7904ZM93.0691 45.6634C93.2528 45.6709 93.4221 45.7156 93.5743 45.7889L95.8281 41.1083C95.0507 40.7341 94.1878 40.5102 93.2819 40.473L93.0691 45.6634ZM92.9993 45.6624C93.0216 45.6621 93.0439 45.6624 93.066 45.6634L93.2847 40.4733C93.1748 40.4686 93.065 40.4668 92.9548 40.4676L92.9993 45.6624ZM77.4647 45.6624H92.9772V40.4676H77.4647V45.6624ZM100.503 58.4024L98.9374 56.4455L94.8811 59.6907L96.4465 61.6476L100.503 58.4024ZM94.312 58.0681V62.1125H99.5068V58.0681H94.312ZM96.3969 58.4665L94.8315 60.5541L98.9873 63.6709L100.553 61.5834L96.3969 58.4665ZM69.8891 61.5834L71.4548 63.6712L75.6107 60.5543L74.045 58.4665L69.8891 61.5834ZM71.5045 56.4452L69.9387 58.4024L73.9951 61.6476L75.5608 59.6904L71.5045 56.4452ZM76.1302 62.1128V58.0678H70.9354V62.1128H76.1302Z" fill="url(#paint9_linear_348_4446)"/>
<path fill-rule="evenodd" clip-rule="evenodd" d="M95.6112 59.5171L90.4164 66.4433C88.2644 69.3124 88.846 73.3825 91.7151 75.5342C94.5839 77.6862 98.654 77.1046 100.806 74.2355L107.624 65.1446H101.131L96.6501 71.1187C96.2198 71.6927 95.4057 71.8088 94.832 71.3784C94.2582 70.9483 94.1418 70.1342 94.5722 69.5602L97.8839 65.1446H95.6112V59.5171Z" fill="url(#paint10_linear_348_4446)"/>
<path fill-rule="evenodd" clip-rule="evenodd" d="M74.8209 59.5171L80.0157 66.4433C82.1674 69.3124 81.5861 73.3825 78.717 75.5342C75.8479 77.6862 71.7777 77.1046 69.6261 74.2355L62.8076 65.1446H69.3011L73.7819 71.1187C74.2123 71.6927 75.0263 71.8088 75.6001 71.3784C76.1739 70.9483 76.2902 70.1342 75.8598 69.5602L72.5479 65.1446H74.8209V59.5171Z" fill="url(#paint11_linear_348_4446)"/>
<path d="M72.2339 46.9611V41.7663C72.2339 38.8972 74.5596 36.5715 77.4287 36.5715" stroke="url(#paint12_linear_348_4446)" stroke-width="2.96545"/>
<path d="M98.208 46.9611V41.7663C98.208 38.8972 95.882 36.5715 93.0132 36.5715" stroke="url(#paint13_linear_348_4446)" stroke-width="2.96545"/>
<path d="M95.6054 9.05311C95.6054 8.27999 94.7208 7.77088 93.9545 8.10363L85.2158 11.896L93.9545 15.6887C94.7208 16.0211 95.6054 15.5124 95.6054 14.7389V9.05311Z" fill="url(#paint14_linear_348_4446)"/>
<path d="M76.4773 8.10363C75.7113 7.77088 74.8267 8.27999 74.8267 9.05311V14.7389C74.8267 15.5124 75.7113 16.0211 76.4773 15.6887L85.2163 11.896L76.4773 8.10363Z" fill="url(#paint15_linear_348_4446)"/>
<defs>
<linearGradient id="paint0_linear_348_4446" x1="22.2216" y1="41.7661" x2="22.2216" y2="64.0233" gradientUnits="userSpaceOnUse">
<stop stop-color="#0D6269"/>
<stop offset="1" stop-color="#338E95"/>
</linearGradient>
<linearGradient id="paint1_linear_348_4446" x1="39.0447" y1="41.7661" x2="39.0447" y2="64.0698" gradientUnits="userSpaceOnUse">
<stop stop-color="#0D6269"/>
<stop offset="1" stop-color="#338E95"/>
</linearGradient>
<linearGradient id="paint2_linear_348_4446" x1="30.6756" y1="15.7922" x2="30.6756" y2="108" gradientUnits="userSpaceOnUse">
<stop stop-color="#0D6269"/>
<stop offset="1" stop-color="#338E95"/>
</linearGradient>
<linearGradient id="paint3_linear_348_4446" x1="43.8253" y1="59.5171" x2="43.8253" y2="76.8334" gradientUnits="userSpaceOnUse">
<stop stop-color="#0D6269"/>
<stop offset="1" stop-color="#338E95"/>
</linearGradient>
<linearGradient id="paint4_linear_348_4446" x1="17.5157" y1="59.5171" x2="17.5157" y2="76.8334" gradientUnits="userSpaceOnUse">
<stop stop-color="#0D6269"/>
<stop offset="1" stop-color="#338E95"/>
</linearGradient>
<linearGradient id="paint5_linear_348_4446" x1="20.2859" y1="36.5715" x2="20.2859" y2="46.9611" gradientUnits="userSpaceOnUse">
<stop stop-color="#0D6269"/>
<stop offset="1" stop-color="#338E95"/>
</linearGradient>
<linearGradient id="paint6_linear_348_4446" x1="41.0652" y1="36.5715" x2="41.0652" y2="46.9611" gradientUnits="userSpaceOnUse">
<stop stop-color="#0D6269"/>
<stop offset="1" stop-color="#338E95"/>
</linearGradient>
<linearGradient id="paint7_linear_348_4446" x1="76.767" y1="41.7661" x2="76.767" y2="64.0233" gradientUnits="userSpaceOnUse">
<stop stop-color="#0D6269"/>
<stop offset="1" stop-color="#338E95"/>
</linearGradient>
<linearGradient id="paint8_linear_348_4446" x1="93.5901" y1="41.7661" x2="93.5901" y2="64.0698" gradientUnits="userSpaceOnUse">
<stop stop-color="#0D6269"/>
<stop offset="1" stop-color="#338E95"/>
</linearGradient>
<linearGradient id="paint9_linear_348_4446" x1="85.221" y1="15.7922" x2="85.221" y2="108" gradientUnits="userSpaceOnUse">
<stop stop-color="#0D6269"/>
<stop offset="1" stop-color="#338E95"/>
</linearGradient>
<linearGradient id="paint10_linear_348_4446" x1="98.3707" y1="59.5171" x2="98.3707" y2="76.8334" gradientUnits="userSpaceOnUse">
<stop stop-color="#0D6269"/>
<stop offset="1" stop-color="#338E95"/>
</linearGradient>
<linearGradient id="paint11_linear_348_4446" x1="72.0612" y1="59.5171" x2="72.0612" y2="76.8334" gradientUnits="userSpaceOnUse">
<stop stop-color="#0D6269"/>
<stop offset="1" stop-color="#338E95"/>
</linearGradient>
<linearGradient id="paint12_linear_348_4446" x1="74.8313" y1="36.5715" x2="74.8313" y2="46.9611" gradientUnits="userSpaceOnUse">
<stop stop-color="#0D6269"/>
<stop offset="1" stop-color="#338E95"/>
</linearGradient>
<linearGradient id="paint13_linear_348_4446" x1="95.6106" y1="36.5715" x2="95.6106" y2="46.9611" gradientUnits="userSpaceOnUse">
<stop stop-color="#0D6269"/>
<stop offset="1" stop-color="#338E95"/>
</linearGradient>
<linearGradient id="paint14_linear_348_4446" x1="90.4106" y1="8" x2="90.4106" y2="15.7922" gradientUnits="userSpaceOnUse">
<stop stop-color="#0D6269"/>
<stop offset="1" stop-color="#338E95"/>
</linearGradient>
<linearGradient id="paint15_linear_348_4446" x1="80.0215" y1="8" x2="80.0215" y2="15.7922" gradientUnits="userSpaceOnUse">
<stop stop-color="#0D6269"/>
<stop offset="1" stop-color="#338E95"/>
</linearGradient>
</defs>
</svg>
